<?xml version="1.0" encoding="UTF-8" standalone="no"?>
<svg
   xmlns:dc="http://purl.org/dc/elements/1.1/"
   xmlns:cc="http://creativecommons.org/ns#"
   xmlns:rdf="http://www.w3.org/1999/02/22-rdf-syntax-ns#"
   xmlns:svg="http://www.w3.org/2000/svg"
   xmlns="http://www.w3.org/2000/svg"
   xmlns:sodipodi="http://sodipodi.sourceforge.net/DTD/sodipodi-0.dtd"
   xmlns:inkscape="http://www.inkscape.org/namespaces/inkscape"
   width="157"
   height="221"
   overflow="hidden"
   version="1.1"
   id="svg92"
   sodipodi:docname="lightning bolt.svg"
   inkscape:version="1.0.2-2 (e86c870879, 2021-01-15)">
  <metadata
     id="metadata96">
    <rdf:RDF>
      <cc:Work
         rdf:about="">
        <dc:format>image/svg+xml</dc:format>
        <dc:type
           rdf:resource="http://purl.org/dc/dcmitype/StillImage" />
      </cc:Work>
    </rdf:RDF>
  </metadata>
  <sodipodi:namedview
     pagecolor="#ffffff"
     bordercolor="#666666"
     borderopacity="1"
     objecttolerance="10"
     gridtolerance="10"
     guidetolerance="10"
     inkscape:pageopacity="0"
     inkscape:pageshadow="2"
     inkscape:window-width="1920"
     inkscape:window-height="1017"
     id="namedview94"
     showgrid="false"
     inkscape:zoom="3.8461538"
     inkscape:cx="78.5"
     inkscape:cy="110.5"
     inkscape:window-x="-8"
     inkscape:window-y="-8"
     inkscape:window-maximized="1"
     inkscape:current-layer="svg92" />
  <defs
     id="defs86">
    <clipPath
       id="clip0">
      <rect
         x="231"
         y="37"
         width="157"
         height="221"
         id="rect83" />
    </clipPath>
  </defs>
  <g
     clip-path="url(#clip0)"
     transform="translate(-231 -37)"
     id="g90">
    <path
       d="M292.714 37 323.878 91.6537 310.806 99.2925 350.723 154.799 337.651 164.067 387 257 303.309 185.78 319.27 175.893 267.27 130.274 285.903 116.179 231 68.322 292.714 37Z"
       fill="#252A34"
       fill-rule="evenodd"
       id="path88" />
  </g>
  <path
     style="fill:#000000;stroke-width:0.26"
     d="m 113.56844,183.70692 -40.981568,-34.91087 7.896564,-4.88761 c 4.34311,-2.68819 7.892191,-4.95755 7.886848,-5.04302 C 88.364928,138.77994 76.731529,128.531 62.51826,116.09 48.304994,103.649 36.697114,93.389361 36.722976,93.2908 36.748846,93.192239 40.8065,90.055308 45.74,86.319841 50.6735,82.584375 54.800254,79.439162 54.910561,79.33048 55.020872,79.221797 42.769674,68.377228 27.685678,55.231439 L 0.26023216,31.33 1.3551161,30.784174 C 1.9573022,30.48397 15.767375,23.482345 32.044167,15.225007 48.320958,6.9676703 61.670255,0.25179203 61.709268,0.30083357 62.007157,0.67529197 92.537949,54.415351 92.530864,54.552766 c -0.005,0.09748 -2.842276,1.826697 -6.305,3.842706 -3.842533,2.237134 -6.285222,3.812271 -6.268554,4.042194 0.01503,0.207197 8.88457,12.694342 19.710106,27.74921 10.825534,15.054864 19.646754,27.471924 19.602694,27.593454 -0.0441,0.12154 -2.92462,2.23239 -6.40124,4.69079 -4.86162,3.43776 -6.2843,4.56783 -6.16163,4.89434 0.0877,0.2335 10.97598,20.79725 24.19613,45.69723 13.22014,24.89998 24.03663,45.34573 24.03663,45.435 0,0.0893 -0.0877,0.15281 -0.195,0.1412 -0.10725,-0.0116 -18.6367,-15.731 -41.17656,-34.93197 z"
     id="path98" />
</svg>
