<?xml version="1.0" encoding="UTF-8" standalone="no"?>
<svg
   xmlns:dc="http://purl.org/dc/elements/1.1/"
   xmlns:cc="http://creativecommons.org/ns#"
   xmlns:rdf="http://www.w3.org/1999/02/22-rdf-syntax-ns#"
   xmlns:svg="http://www.w3.org/2000/svg"
   xmlns="http://www.w3.org/2000/svg"
   xmlns:sodipodi="http://sodipodi.sourceforge.net/DTD/sodipodi-0.dtd"
   xmlns:inkscape="http://www.inkscape.org/namespaces/inkscape"
   width="802"
   height="282"
   overflow="hidden"
   version="1.1"
   id="svg38"
   sodipodi:docname="quickperf.svg"
   inkscape:version="1.0.2-2 (e86c870879, 2021-01-15)">
  <metadata
     id="metadata42">
    <rdf:RDF>
      <cc:Work
         rdf:about="">
        <dc:format>image/svg+xml</dc:format>
        <dc:type
           rdf:resource="http://purl.org/dc/dcmitype/StillImage" />
      </cc:Work>
    </rdf:RDF>
  </metadata>
  <sodipodi:namedview
     pagecolor="#ffffff"
     bordercolor="#666666"
     borderopacity="1"
     objecttolerance="10"
     gridtolerance="10"
     guidetolerance="10"
     inkscape:pageopacity="0"
     inkscape:pageshadow="2"
     inkscape:window-width="1920"
     inkscape:window-height="1017"
     id="namedview40"
     showgrid="false"
     inkscape:zoom="1.5448878"
     inkscape:cx="401"
     inkscape:cy="141"
     inkscape:window-x="-8"
     inkscape:window-y="-8"
     inkscape:window-maximized="1"
     inkscape:current-layer="svg38" />
  <defs
     id="defs30">
    <clipPath
       id="clip0">
      <rect
         x="287"
         y="319"
         width="802"
         height="282"
         id="rect27" />
    </clipPath>
  </defs>
  <g
     clip-path="url(#clip0)"
     transform="translate(-287 -319)"
     id="g36">
    <path
       d="M349.318 371 380.282 425.654 367.294 433.292 406.955 488.799 393.967 498.067 443 591 359.845 519.78 375.704 509.893 324.038 464.274 342.551 450.179 288 402.322 349.318 371Z"
       fill="#252A34"
       fill-rule="evenodd"
       id="path32" />
    <text
       fill="#252A34"
       font-family="Segoe UI,Segoe UI_MSFontService,sans-serif"
       font-weight="400"
       font-size="133"
       transform="translate(442.347 490)"
       id="text34">QuickPerf</text>
  </g>
  <path
     style="fill:#000000;stroke-width:0.647296"
     d="M 113.54669,235.10637 C 91.681488,216.37448 73.733077,200.99922 73.661344,200.9391 c -0.07174,-0.0601 3.351208,-2.28267 7.606539,-4.93903 4.255332,-2.65636 7.663787,-5.0245 7.574337,-5.26255 C 88.752764,190.49947 78.04774,180.9344 65.053269,169.4818 52.058797,158.02921 40.61561,147.8664 39.623964,146.89779 l -1.802993,-1.76112 9.05461,-6.76123 c 4.980037,-3.71868 9.067521,-6.90688 9.083298,-7.08488 0.01578,-0.17801 -12.058771,-10.91577 -26.832328,-23.86168 C 14.352993,94.482965 2.2655367,83.701126 2.2655367,83.469237 c 0,-0.231889 4.4420702,-2.662216 9.8712673,-5.400726 C 17.566001,75.33 31.046093,68.462082 42.092563,62.806471 l 20.084492,-10.28293 13.418028,23.686575 c 7.379915,13.027616 14.270098,25.171254 15.31152,26.985864 l 1.89349,3.29929 -6.429502,3.75149 c -3.536231,2.06331 -6.429509,3.87341 -6.429509,4.02243 0,0.14903 8.677368,12.41419 19.283044,27.25593 10.605674,14.84173 19.466284,27.28318 19.690244,27.64768 0.22397,0.36448 -1.97236,2.34505 -4.8807,4.40125 -2.90835,2.05619 -5.79697,4.11986 -6.41915,4.58591 -1.0378,0.77736 0.824,4.55046 22.53482,45.66898 13.01634,24.65189 23.55047,44.93722 23.40918,45.07851 -0.14129,0.14129 -18.14661,-15.0692 -40.01183,-33.80108 z"
     id="path44" />
  <path
     style="fill:#000000;stroke-width:0.647296"
     d="m 228.94803,176.55075 -8.60969,-6.49604 -4.87907,1.08549 c -7.2508,1.61315 -18.2799,1.061 -25.15419,-1.25929 -19.59928,-6.61539 -30.61896,-26.67388 -28.09962,-51.14812 1.36512,-13.26157 5.13518,-21.792777 13.19587,-29.860788 5.92707,-5.932442 11.78883,-9.205839 19.56261,-10.924392 5.98085,-1.322189 17.44722,-1.347233 22.55341,-0.04926 11.59362,2.947051 21.13314,10.782429 26.38877,21.674693 4.21973,8.745377 5.24104,14.468567 4.78627,26.821237 -0.4086,11.09809 -1.27252,14.99447 -5.08554,22.9364 -2.0124,4.1915 -3.74419,6.57787 -7.65082,10.54266 l -5.04963,5.12482 12.64774,9.03805 12.64774,9.03804 -9.32209,-0.0137 -9.32208,-0.0137 z m -16.23775,-14.18919 c 5.53133,-1.02565 12.17619,-4.64153 16.04276,-8.72985 3.789,-4.00631 7.20148,-10.72033 8.5587,-16.83914 1.21419,-5.47402 1.04802,-20.21117 -0.29001,-25.71956 -3.86479,-15.910584 -15.0766,-25.093188 -30.63838,-25.093188 -9.90352,0 -16.45597,2.60236 -22.95121,9.115268 -7.70635,7.72732 -10.58391,15.84091 -10.54137,29.7225 0.031,10.10964 1.01871,14.68443 4.67692,21.66192 6.66857,12.71931 19.91474,18.70567 35.14259,15.88205 z"
     id="path46" />
  <path
     style="fill:#000000;stroke-width:0.647296"
     d="m 280.16367,170.90653 c -6.39346,-2.27973 -9.74734,-5.50206 -12.2972,-11.81487 -2.29963,-5.69333 -2.75677,-11.25209 -2.77869,-33.78859 l -0.02,-20.55166 h 5.14144 5.14144 l 0.19875,23.46449 0.19875,23.46449 1.94189,3.88377 c 2.77739,5.55478 6.00913,7.66995 12.1962,7.98238 2.56888,0.12972 5.87314,-0.0879 7.34278,-0.48366 3.6942,-0.99474 8.72446,-5.68103 10.63421,-9.90703 1.51841,-3.36 1.54757,-3.79484 1.73737,-25.91089 l 0.19305,-22.49355 h 5.14715 5.14714 v 33.01211 33.01211 h -5.17837 -5.17837 v -5.17837 c 0,-3.02072 -0.2697,-5.17837 -0.64729,-5.17837 -0.35601,0 -0.6473,0.26781 -0.6473,0.59513 0,1.55164 -6.68674,7.75422 -9.85825,9.14445 -4.72925,2.07306 -13.67913,2.43663 -18.41472,0.74806 z"
     id="path48" />
  <path
     style="fill:#000000;stroke-width:0.647296"
     d="m 342.09605,137.76352 v -33.01211 h 4.85472 4.85472 v 33.01211 33.01211 h -4.85472 -4.85472 z"
     id="path50" />
  <path
     style="fill:#000000;stroke-width:0.647296"
     d="m 343.89238,86.265408 c -3.69517,-2.005296 -4.2862,-6.957451 -1.19883,-10.044821 3.14145,-3.141453 8.10213,-2.485968 10.07618,1.331429 1.55853,3.013862 1.22333,5.075099 -1.22316,7.521592 -2.4413,2.441297 -4.70285,2.793434 -7.65419,1.1918 z"
     id="path52" />
  <path
     style="fill:#000000;stroke-width:0.647296"
     d="m 392.00558,171.04586 c -10.3184,-2.77477 -18.23041,-11.02334 -21.08466,-21.98156 -1.30608,-5.01436 -1.28612,-15.47739 0.0393,-20.59314 3.12728,-12.07056 11.81511,-21.03956 23.27008,-24.02321 6.72485,-1.7516 18.34976,-1.0627 23.11394,1.36975 1.69946,0.86769 1.78006,1.12557 1.78006,5.69528 v 4.78644 L 415.0787,114.27 c -3.49914,-1.75529 -4.87622,-2.06252 -10.19491,-2.27455 -8.2336,-0.32823 -12.39996,1.16858 -17.52878,6.2974 -5.61618,5.61617 -8.26306,14.69302 -7.07594,24.26523 0.91425,7.37196 2.39132,10.65239 6.74663,14.98363 5.10554,5.07732 8.88061,6.39175 17.21302,5.99338 4.9323,-0.23582 6.35663,-0.58796 10.3045,-2.54759 l 4.58108,-2.27395 v 4.39964 4.39964 l -2.56944,1.31083 c -6.26703,3.19721 -17.23247,4.1898 -24.54927,2.2222 z"
     id="path54" />
  <path
     style="fill:#000000;stroke-width:0.647296"
     d="M 435.3067,121.90476 V 73.033898 h 5.17837 5.17837 v 31.070222 c 0,17.08862 0.21846,31.06987 0.48547,31.06944 0.26701,-4.2e-4 6.73669,-6.84558 14.37707,-15.21146 l 13.89159,-15.21069 h 6.48474 6.48474 l -5.52482,5.66384 c -3.03866,3.11512 -9.96315,10.2759 -15.38777,15.91285 l -9.86294,10.24901 16.60847,17.09925 16.60847,17.09927 -7.03288,-0.0264 -7.03287,-0.0264 -14.48284,-15.83238 c -7.96556,-8.7078 -14.7379,-15.83237 -15.04964,-15.83237 -0.31173,0 -0.56679,7.13644 -0.56679,15.85876 v 15.85876 h -5.17837 -5.17837 z"
     id="path56" />
  <path
     style="fill:#000000;stroke-width:0.647296"
     d="M 435.3067,121.90476 V 73.033898 h 5.17837 5.17837 v 31.070222 c 0,19.2473 0.23459,31.07021 0.6165,31.07021 0.33908,0 6.92834,-6.84515 14.64281,-15.21146 l 14.02631,-15.21146 h 5.87839 5.87838 l -2.29081,2.42736 c -1.25995,1.33505 -8.01858,8.37936 -15.01918,15.65403 -7.0006,7.27467 -12.72837,13.46755 -12.72837,13.76195 0,0.29441 7.27041,8.02013 16.15647,17.16825 8.88606,9.14813 16.06669,16.72275 15.95696,16.83248 -0.10973,0.10973 -3.14415,0.007 -6.74315,-0.22931 l -6.54363,-0.42884 -8.6042,-9.42496 c -12.17188,-13.33296 -19.9909,-21.45426 -20.65572,-21.45426 -0.31395,0 -0.57076,7.13552 -0.57076,15.85876 v 15.85876 h -5.17837 -5.17837 z"
     id="path58" />
  <path
     style="fill:#000000;stroke-width:0.647296"
     d="M 503.2728,124.49395 V 78.212268 l 15.04964,0.01124 c 20.92081,0.01563 26.8892,1.460919 33.65993,8.15102 10.31126,10.188465 9.83521,29.396542 -0.9899,39.941582 -6.56415,6.39433 -13.20993,8.61467 -27.74849,9.27072 l -9.61444,0.43385 v 17.37748 17.37747 h -5.17837 -5.17837 z m 32.47958,0.40356 c 4.26109,-1.36423 8.37873,-4.69197 10.51116,-8.49477 1.86082,-3.31844 1.99635,-4.00073 1.99635,-10.05037 0,-8.118079 -1.54537,-11.751979 -6.38531,-15.01492 -4.46725,-3.011686 -6.67869,-3.487149 -18.05012,-3.880808 l -10.19492,-0.352931 v 19.562329 19.56234 l 9.87127,-0.2844 c 5.42919,-0.15641 10.9424,-0.62733 12.25157,-1.04647 z"
     id="path60" />
  <path
     style="fill:#000000;stroke-width:0.647296"
     d="m 588.47276,171.35112 c -6.30815,-1.4812 -13.52342,-6.84824 -16.87243,-12.55047 -0.83636,-1.42406 -2.20239,-4.77381 -3.03561,-7.44391 -2.12917,-6.82306 -2.17178,-18.93604 -0.09,-25.59508 2.77451,-8.87504 9.00183,-16.2161 16.88847,-19.90896 3.60796,-1.68939 5.29935,-2.06737 10.21765,-2.28332 10.40686,-0.45695 17.92866,2.93746 22.85426,10.31359 3.87827,5.80777 5.8371,13.39962 5.8693,22.74778 l 0.0128,3.72195 h -23.7009 -23.7009 l 0.46361,3.71058 c 1.02738,8.22293 4.85505,14.34585 10.92401,17.47458 2.74437,1.4148 4.4227,1.76263 9.60127,1.98986 7.26929,0.31896 12.94488,-1.04716 18.18235,-4.37652 1.70343,-1.08284 3.23267,-1.96879 3.39831,-1.96879 0.16564,0 0.30117,1.99899 0.30117,4.44221 v 4.44221 l -4.18357,2.05957 c -2.30096,1.13276 -6.16046,2.47846 -8.57667,2.99045 -4.84969,1.02764 -14.64743,1.15136 -18.55312,0.23427 z m 25.22378,-42.81157 c -0.7403,-5.84106 -2.30255,-9.55897 -5.25891,-12.51532 -3.18506,-3.18507 -5.9594,-4.14649 -11.95418,-4.14263 -9.47558,0.006 -16.91155,7.0371 -18.9866,17.95254 l -0.39992,2.10371 h 18.51515 18.51515 z"
     id="path62" />
  <path
     style="fill:#000000;stroke-width:0.647296"
     d="m 641.14689,137.76352 v -33.01211 h 4.85472 4.85473 v 6.79661 c 0,3.73814 0.21846,6.79552 0.48547,6.79419 0.26701,-10e-4 1.05229,-1.38493 1.74506,-3.07466 0.69278,-1.68973 2.76633,-4.58221 4.60789,-6.42774 4.04967,-4.0584 8.74556,-5.76483 13.90964,-5.05459 l 3.2019,0.44038 v 5.10161 5.1016 l -1.76679,-0.67173 c -2.65645,-1.00998 -9.50077,-0.82252 -11.71166,0.32077 -4.71718,2.43935 -8.50646,8.32233 -9.81926,15.2447 -0.35874,1.89161 -0.65225,11.9924 -0.65225,22.44619 v 19.00689 h -4.85473 -4.85472 z"
     id="path64" />
  <path
     style="fill:#000000;stroke-width:0.647296"
     d="m 690.9887,141.97094 v -28.80468 h -5.50202 -5.50201 v -4.20742 -4.20743 h 5.41757 5.41758 l 0.29465,-8.576672 c 0.26305,-7.656906 0.4902,-9.011347 2.11815,-12.629913 3.38634,-7.527063 10.07159,-11.794708 18.46956,-11.790357 7.7593,0.004 7.76755,0.0096 7.76755,5.222681 v 4.439558 l -1.66038,-0.631275 c -2.50259,-0.951486 -9.15925,-0.759878 -11.25519,0.323976 -1.01599,0.525388 -2.53076,2.054625 -3.36616,3.398305 -1.36398,2.193854 -1.54175,3.350915 -1.74281,11.343377 l -0.2239,8.90032 h 7.82963 7.82963 v 4.20743 4.20742 h -7.76756 -7.76755 v 28.80468 28.80469 h -5.17837 -5.17837 z"
     id="path66" />
</svg>
