<?xml version="1.0" encoding="UTF-8" standalone="no"?>
<svg
   xmlns:dc="http://purl.org/dc/elements/1.1/"
   xmlns:cc="http://creativecommons.org/ns#"
   xmlns:rdf="http://www.w3.org/1999/02/22-rdf-syntax-ns#"
   xmlns:svg="http://www.w3.org/2000/svg"
   xmlns="http://www.w3.org/2000/svg"
   xmlns:sodipodi="http://sodipodi.sourceforge.net/DTD/sodipodi-0.dtd"
   xmlns:inkscape="http://www.inkscape.org/namespaces/inkscape"
   width="802"
   height="282"
   overflow="hidden"
   version="1.1"
   id="svg70"
   sodipodi:docname="quickperf.svg"
   inkscape:version="1.0.2-2 (e86c870879, 2021-01-15)">
  <metadata
     id="metadata74">
    <rdf:RDF>
      <cc:Work
         rdf:about="">
        <dc:format>image/svg+xml</dc:format>
        <dc:type
           rdf:resource="http://purl.org/dc/dcmitype/StillImage" />
      </cc:Work>
    </rdf:RDF>
  </metadata>
  <sodipodi:namedview
     pagecolor="#ffffff"
     bordercolor="#666666"
     borderopacity="1"
     objecttolerance="10"
     gridtolerance="10"
     guidetolerance="10"
     inkscape:pageopacity="0"
     inkscape:pageshadow="2"
     inkscape:window-width="1920"
     inkscape:window-height="1017"
     id="namedview72"
     showgrid="false"
     inkscape:zoom="1.5137157"
     inkscape:cx="704.09593"
     inkscape:cy="85.233478"
     inkscape:window-x="-8"
     inkscape:window-y="-8"
     inkscape:window-maximized="1"
     inkscape:current-layer="svg70"
     inkscape:document-rotation="0" />
  <defs
     id="defs62">
    <clipPath
       id="clip0">
      <rect
         x="287"
         y="319"
         width="802"
         height="282"
         id="rect59" />
    </clipPath>
  </defs>
  <path
     style="fill:#000000;stroke-width:0.660626"
     d="m 229.23723,176.67381 c -4.84771,-3.63345 -8.98615,-6.59567 -9.19654,-6.58273 -0.2104,0.0129 -2.16623,0.45422 -4.34629,0.98062 -9.55543,2.30725 -23.06013,0.69399 -31.58714,-3.77337 -6.3523,-3.328 -13.51427,-10.85135 -16.85951,-17.71019 -3.69592,-7.57785 -4.78851,-12.09224 -5.19636,-21.47035 -1.35213,-31.090737 16.07032,-51.198515 44.36112,-51.198515 12.65373,0 21.58841,3.407793 29.29214,11.172369 9.35606,9.429958 13.34654,20.219396 13.33769,36.062396 -0.008,14.69156 -4.66594,27.35187 -13.27397,36.08029 -2.55659,2.59234 -4.4031,4.94107 -4.10334,5.21939 0.29976,0.27832 6.01481,4.4031 12.70011,9.16619 l 12.15509,8.66016 h -9.23449 -9.23449 z m -14.22655,-14.88583 c 10.83733,-2.82277 18.65057,-11.18476 21.79723,-23.32815 2.33682,-9.01809 1.92585,-21.96896 -0.9975,-31.43366 -2.84101,-9.198122 -10.2593,-16.852506 -18.92743,-19.52982 -5.78917,-1.788091 -15.66453,-1.823696 -21.27759,-0.07672 -16.73556,5.208692 -26.03696,24.52581 -22.25413,46.21725 2.45608,14.08359 10.1455,23.92637 21.85511,27.97545 4.26259,1.47399 14.47204,1.56452 19.80431,0.17564 z"
     id="path76" />
  <path
     style="fill:#000000;stroke-width:0.660626"
     d="m 112.88696,234.60966 -39.387346,-33.78821 7.894501,-4.90503 7.894494,-4.90503 -1.538459,-1.49365 C 86.904,188.69623 75.410765,178.51189 62.209631,166.88586 49.008494,155.25983 38.218909,145.55405 38.232774,145.31746 c 0.01387,-0.23659 4.064944,-3.512 9.002398,-7.27871 L 56.21236,131.19021 29.140119,107.52303 C 14.250387,94.506079 2.0540272,83.707208 2.0370981,83.525535 2.0014727,83.143228 61.091765,52.967406 61.871183,52.969879 c 0.422372,0.0013 29.319566,50.191991 30.395356,52.792771 0.179208,0.43323 -2.43372,2.40837 -6.006808,4.54062 -3.478189,2.07562 -6.323981,3.87481 -6.323981,3.99821 0,0.1234 8.874638,12.64122 19.721417,27.81739 l 19.721423,27.59303 -6.34375,4.52302 c -3.48905,2.48766 -6.26128,4.8217 -6.1605,5.18675 0.10077,0.36505 10.4318,20.08821 22.95781,43.82924 12.52603,23.74103 22.95456,43.6345 23.17452,44.20772 0.21996,0.5732 0.14516,1.01903 -0.16622,0.99071 -0.31139,-0.0283 -18.29046,-15.25617 -39.95349,-33.83968 z"
     id="path78" />
  <path
     style="fill:#000000;stroke-width:0.660626"
     d="m 280.10544,171.04821 c -4.38451,-1.44849 -8.66769,-4.91863 -10.71344,-8.67979 -3.54535,-6.51822 -3.82034,-8.99355 -3.82034,-34.38942 v -23.31343 h 4.9547 4.95469 v 22.35629 c 0,17.49183 0.20575,23.03994 0.94559,25.49822 2.32626,7.72959 7.07439,11.22772 15.23975,11.22772 8.34618,0 14.31617,-4.54644 16.90893,-12.87699 1.12655,-3.61962 1.25829,-6.24999 1.25829,-25.12407 v -21.08117 h 4.95469 4.9547 v 33.0313 33.0313 h -4.9547 -4.95469 v -5.28501 c 0,-4.96562 -0.74331,-6.82541 -1.62176,-4.05768 -0.6601,2.07979 -6.11418,7.12329 -9.43178,8.72175 -4.03902,1.94606 -14.09809,2.45291 -18.67463,0.94098 z"
     id="path80" />
  <path
     style="fill:#000000;stroke-width:0.660626"
     d="m 229.66381,176.57741 -9.11991,-6.70267 -4.40663,0.72919 c -8.76251,1.44997 -9.84267,1.50525 -15.66775,0.80169 -6.77821,-0.81866 -13.27697,-2.70701 -17.24749,-5.0116 -9.72697,-5.64577 -17.95948,-18.05045 -20.08166,-30.25892 -1.04334,-6.0021 -0.44894,-21.88508 1.01702,-27.17546 4.38029,-15.807768 15.17158,-26.611858 30.32588,-30.361856 9.06103,-2.242193 22.68565,-1.250457 30.41854,2.214166 3.71028,1.66234 10.13983,6.6617 12.9795,10.092331 7.8016,9.425179 10.59915,18.220429 10.58481,33.277729 -0.0134,14.08621 -3.49948,24.58285 -11.17413,33.64562 -5.62151,6.63828 -6.34142,7.57249 -6.02864,7.82333 0.15734,0.12618 5.04258,3.60355 10.85609,7.7275 5.81351,4.12395 11.27899,8.03888 12.14552,8.69985 1.54858,1.18122 1.4298,1.20176 -6.95288,1.20176 h -8.52837 z m -12.76892,-15.10874 c 8.15551,-2.51899 15.53175,-9.82853 18.83176,-18.6615 4.40242,-11.78374 3.243,-32.49831 -2.35614,-42.0957 -4.79476,-8.218583 -13.01874,-13.576428 -22.18263,-14.451757 -11.99984,-1.14622 -20.33073,1.349327 -27.57652,8.260636 -7.90608,7.541131 -11.59853,18.316001 -11.03418,32.198681 0.58461,14.3811 5.51731,24.82484 14.71797,31.16158 5.55864,3.82837 9.38287,4.87346 17.9248,4.89848 5.56339,0.0163 8.41624,-0.30391 11.67494,-1.31042 z"
     id="path82" />
  <path
     style="fill:#000000;stroke-width:0.660626"
     d="m 342.20428,137.69687 v -33.0313 h 4.9547 4.95469 v 33.0313 33.0313 h -4.95469 -4.9547 z"
     id="path84" />
  <path
     style="fill:#000000;stroke-width:0.660626"
     d="m 344.40333,86.526257 c -6.06088,-2.636443 -3.89833,-12.249486 2.75565,-12.249486 1.78708,0 2.91522,0.501398 4.34489,1.931061 3.36992,3.369921 2.54943,8.228622 -1.73271,10.26063 -2.56959,1.21935 -2.69445,1.220695 -5.36783,0.05779 z"
     id="path86" />
  <path
     style="fill:#000000;stroke-width:0.660626"
     d="m 391.76725,170.99038 c -10.05047,-2.70081 -18.00888,-11.02447 -20.80513,-21.76001 -1.28401,-4.92963 -1.29176,-15.21683 -0.0156,-20.62976 2.59064,-10.98795 10.17778,-19.59335 20.64036,-23.41046 5.29981,-1.93355 17.93718,-2.07851 23.45138,-0.26899 l 3.7986,1.24653 v 4.91931 c 0,2.70562 -0.22296,4.80733 -0.49547,4.67045 -12.3503,-6.20336 -24.37588,-5.06698 -31.65613,2.99139 -9.01618,9.97982 -8.95024,29.9916 0.12873,39.07057 6.74453,6.74453 18.32736,7.99713 28.08739,3.03744 l 3.93548,-1.99987 v 4.53299 4.53299 l -3.19757,1.37556 c -1.75867,0.75656 -4.50852,1.67774 -6.11079,2.04709 -4.1878,0.96532 -13.54345,0.77821 -17.76129,-0.35523 z"
     id="path88" />
  <path
     style="fill:#000000;stroke-width:0.660626"
     d="M 435.35255,121.84185 V 72.955519 h 5.28501 5.28501 v 31.104471 c 0,17.10747 0.24695,31.00539 0.54878,30.88427 0.30183,-0.12111 6.74052,-6.98337 14.30819,-15.24945 l 13.7594,-15.02924 h 6.24809 6.2481 l -2.51747,2.80766 c -1.38461,1.54421 -8.03372,8.53862 -14.7758,15.54313 -6.74208,7.00451 -12.36884,13.05869 -12.50389,13.45373 -0.13506,0.39504 3.73018,4.77165 8.58942,9.72581 4.85924,4.95416 12.24829,12.50062 16.42012,16.76992 l 7.58514,7.76235 h -6.98321 -6.98321 L 461.48301,155.0383 c -7.91076,-8.62942 -14.64809,-15.78896 -14.97183,-15.91007 -0.3342,-0.12503 -0.58861,6.65643 -0.58861,15.68987 v 15.91007 h -5.28501 -5.28501 z"
     id="path90" />
  <path
     style="fill:#000000;stroke-width:0.660626"
     d="M 503.39703,124.48435 V 78.240527 l 15.02925,0.01147 c 16.50696,0.0126 21.41212,0.663278 27.23185,3.612359 7.47573,3.788239 11.83647,9.905899 13.34921,18.727534 2.60847,15.21139 -6.64044,29.30646 -22.0049,33.53483 -1.9508,0.53687 -8.08047,1.15865 -13.62147,1.38172 l -10.07454,0.40559 v 17.40707 17.40707 h -4.9547 -4.9547 z m 32.17637,0.37284 c 4.89803,-1.52011 8.75195,-4.70561 10.99189,-9.08547 1.63795,-3.20275 1.89636,-4.46312 1.91888,-9.35902 0.0228,-4.94891 -0.21355,-6.13712 -1.88599,-9.482961 -3.59676,-7.195581 -9.34701,-9.440447 -24.18179,-9.440447 h -9.10996 v 19.579558 19.57955 l 9.41392,-0.36193 c 5.82524,-0.22397 10.72495,-0.76882 12.85305,-1.42928 z"
     id="path92" />
  <path
     style="fill:#000000;stroke-width:0.660626"
     d="m 588.44994,171.3322 c -9.02958,-2.12811 -16.26875,-9.14331 -19.71138,-19.10156 -2.17554,-6.29303 -2.233,-20.09003 -0.11177,-26.83465 2.86351,-9.10473 9.89243,-16.9898 18.00912,-20.20271 2.89736,-1.14688 5.03871,-1.44318 10.57002,-1.46256 8.86481,-0.0311 13.23719,1.52906 18.17943,6.48661 5.59748,5.61481 7.95302,11.95387 8.67692,23.35063 l 0.4301,6.77141 h -23.55261 -23.55262 v 2.57292 c 0,7.08972 4.87408,15.66127 10.55297,18.55842 8.08287,4.12357 21.41361,2.6382 29.7784,-3.31806 l 1.9487,-1.38759 v 4.65985 4.65986 l -4.04832,2.04358 c -2.22658,1.12398 -6.01692,2.46086 -8.42298,2.97086 -4.81976,1.02161 -14.86984,1.14653 -18.74598,0.23299 z m 25.09234,-43.58205 c -0.64541,-7.1177 -4.63689,-13.09506 -10.14215,-15.18815 -3.24489,-1.2337 -10.35162,-0.86716 -14.05217,0.72478 -5.48625,2.36012 -10.67586,9.48094 -11.75468,16.12894 l -0.37901,2.33552 h 18.34541 18.34541 z"
     id="path94" />
  <path
     style="fill:#000000;stroke-width:0.660626"
     d="m 640.80725,137.69687 v -33.0313 h 4.95469 4.9547 v 6.93657 c 0,3.81512 0.22296,6.93546 0.49547,6.9341 0.27251,-0.001 1.0386,-1.32328 1.70244,-2.9376 1.64844,-4.00871 5.7911,-8.54329 9.40166,-10.29114 2.93854,-1.42252 10.46998,-2.03093 12.16591,-0.98278 0.37273,0.23035 0.67768,2.58735 0.67768,5.23776 v 4.81893 l -3.46828,-0.92251 c -6.54035,-1.73964 -12.46436,0.45193 -16.17918,5.98545 -4.08924,6.09124 -4.35329,7.83569 -4.63773,30.63926 l -0.25751,20.64456 h -4.90493 -4.90492 z"
     id="path96" />
  <path
     style="fill:#000000;stroke-width:0.660626"
     d="m 691.01483,141.99094 v -28.73723 h -5.61532 -5.61533 v -4.29407 -4.29407 h 5.61533 5.61532 v -6.573745 c 0,-11.375287 1.84519,-16.632045 7.6234,-21.718227 3.75301,-3.303528 7.8489,-4.741988 13.46916,-4.73031 7.17287,0.0149 7.31436,0.11206 7.31436,5.022724 0,2.31936 -0.10807,4.217019 -0.24015,4.217019 -0.13208,0 -1.78931,-0.293794 -3.68274,-0.652876 -4.819,-0.913905 -8.44167,0.01834 -11.03217,2.838965 -2.58161,2.810943 -3.54247,6.975322 -3.54247,15.353018 v 6.243432 h 7.92751 7.92751 v 4.29407 4.29407 h -7.92751 -7.92751 v 28.73723 28.73723 h -4.9547 -4.95469 z"
     id="path98" />
</svg>
